<svg id="Grupo_14634" data-name="Grupo 14634" xmlns="http://www.w3.org/2000/svg" xmlns:xlink="http://www.w3.org/1999/xlink" width="48.999" height="67.559" viewBox="0 0 48.999 67.559">
  <defs>
    <style>
      .cls-1 {
        fill: #fff;
      }

      .cls-2 {
        clip-path: url(#clip-path);
      }
    </style>
    <clipPath id="clip-path">
      <rect id="Rectángulo_1960" data-name="Rectángulo 1960" class="cls-1" width="48.999" height="67.559"/>
    </clipPath>
  </defs>
  <g id="Grupo_14633" data-name="Grupo 14633" class="cls-2">
    <path id="Trazado_6974" data-name="Trazado 6974" class="cls-1" d="M40.442,31.193l1.442.537c3.99,1.482,6.58,4.171,7,8.525.473,4.917-.4,9.477-4.354,12.9-2.539,2.194-5.693,3.021-8.92,3.561-1.38.231-2.775.4-4.171.491-.867.059-1.12.46-1.114,1.252.019,2.5-.031,5,.019,7.494.023,1.159-.333,1.706-1.582,1.6-1.044-.091-2.1-.017-3.154-.019-1.915,0-1.919,0-1.924-1.865-.005-2.279-.041-4.559.015-6.836.026-1.044-.378-1.379-1.387-1.363-3.843.058-3.157-.442-3.216,3.173q-.045,2.826,0,5.653c.016.888-.308,1.277-1.227,1.247-1.357-.045-2.718-.048-4.075,0-.936.034-1.214-.382-1.2-1.257.031-2.585-.025-5.172.025-7.757.019-.988-.347-1.293-1.3-1.282-3.286.038-6.574-.019-9.86.022C.4,57.276.026,56.956.238,55.883c.339-1.717.607-3.449.875-5.179a1.267,1.267,0,0,1,1.514-1.229c1.049.052,2.1.025,3.155,0,1.6-.035,2.281-.724,2.358-2.343.01-.219.006-.438.006-.657q0-12.819,0-25.637c0-2.537-.961-3.588-3.509-3.769a24.644,24.644,0,0,0-3.153-.016C.421,17.115-.049,16.741,0,15.636c.06-1.268.007-2.541.013-3.812C.025,10.178.1,10.1,1.706,10.095c3.112-.006,6.224-.035,9.334.023,1.179.023,1.632-.334,1.587-1.575-.088-2.407,0-4.82-.038-7.23C12.572.362,12.9-.037,13.878,0c1.312.055,2.631.055,3.943,0,1-.042,1.292.4,1.279,1.333-.034,2.454.029,4.909-.027,7.362-.025,1.074.343,1.466,1.386,1.2a2.177,2.177,0,0,1,.392-.038c2.83-.187,2.83-.186,2.831-3.09,0-1.841.023-3.682,0-5.522-.013-.889.337-1.27,1.246-1.241C26.281.05,27.643.06,29,0c.972-.041,1.341.358,1.333,1.3-.022,2.41.034,4.821-.019,7.23-.025,1.142.219,1.7,1.547,1.842a20.734,20.734,0,0,1,8.5,2.516,10.763,10.763,0,0,1,.891,17.695c-.207.153-.413.307-.814.605M19.286,42.85c0,1.75.032,3.5-.013,5.25-.025.977.273,1.464,1.337,1.426,1.88-.068,3.772.06,5.641-.1,2.657-.234,5.317-.594,7.632-2.113a5.353,5.353,0,0,0,1.74-7.059,6.783,6.783,0,0,0-4.219-3.1c-3.655-1.2-7.429-.962-11.187-.94-.78,0-.932.487-.93,1.129.006,1.838,0,3.675,0,5.513m0-19.18c0,1.618.007,3.236,0,4.854,0,.688.124,1.223.987,1.2a32.123,32.123,0,0,0,9.208-1.064,5.164,5.164,0,0,0,3.915-5c.016-2.7-1.5-4.515-4.6-5.45-2.812-.848-5.708-.684-8.591-.662-.79.006-.919.5-.917,1.136,0,1.662,0,3.323,0,4.985" transform="translate(0 0)"/>
  </g>
</svg>
