<svg xmlns="http://www.w3.org/2000/svg" xmlns:xlink="http://www.w3.org/1999/xlink" width="61.322" height="61.378" viewBox="0 0 61.322 61.378">
  <defs>
    <style>
      .cls-1 {
        fill: #fff;
      }

      .cls-2 {
        clip-path: url(#clip-path);
      }
    </style>
    <clipPath id="clip-path">
      <rect id="Rectángulo_1959" data-name="Rectángulo 1959" class="cls-1" width="61.322" height="61.378"/>
    </clipPath>
  </defs>
  <g id="Grupo_14631" data-name="Grupo 14631" class="cls-2">
    <path id="Trazado_6969" data-name="Trazado 6969" class="cls-1" d="M175.778,83.414q0,8.176,0,16.352c0,2.079-.8,2.913-2.877,2.932q-5.051.045-10.1,0c-2.018-.018-2.891-.924-2.892-2.974q-.014-16.419,0-32.838c0-2.086.809-2.875,2.919-2.883q5.052-.02,10.1,0c2.093.01,2.847.789,2.85,2.924q.011,8.243,0,16.485" transform="translate(-117.337 -46.96)"/>
    <path id="Trazado_6970" data-name="Trazado 6970" class="cls-1" d="M101.084,120.6c0,3.414.011,6.827,0,10.241-.009,2.54-.818,3.354-3.345,3.365q-4.722.02-9.443,0c-2.385-.014-3.24-.843-3.246-3.193q-.024-10.507,0-21.014c0-2.319.795-3.069,3.143-3.072q4.987-.006,9.975,0c2.063.006,2.895.81,2.911,2.9.027,3.591.008,7.182.009,10.773" transform="translate(-62.403 -78.463)"/>
    <path id="Trazado_6971" data-name="Trazado 6971" class="cls-1" d="M67.364,4.748A24.236,24.236,0,0,1,64.92,4.5a2.126,2.126,0,0,1-1.825-2.284,2.049,2.049,0,0,1,2-2.128c3.055-.108,6.119-.118,9.174,0A1.978,1.978,0,0,1,76.174,2.26c.009,2.794.018,5.589-.032,8.382a2.288,2.288,0,1,1-4.568.1c-.087-1-.017-2.015-.017-3.384-2,1.656-3.721,3.081-5.44,4.51-2.455,2.041-4.893,4.1-7.367,6.121-1.493,1.218-2.487,1.14-3.83-.213-1-1.007-2.015-2-2.957-3.062-.614-.69-1.064-.657-1.757-.075-4.551,3.82-9.138,7.6-13.711,11.392a5.926,5.926,0,0,1-1.526,1.051,2.087,2.087,0,0,1-2.619-.673,1.989,1.989,0,0,1,.037-2.79,30.78,30.78,0,0,1,2.68-2.382Q42.161,15.31,49.272,9.4c1.5-1.248,2.595-1.218,3.958.148,1.033,1.036,2.033,2.1,3.032,3.174.414.443.806.669,1.358.2,3.178-2.676,6.364-5.343,9.744-8.179" transform="translate(-23.333 0)"/>
    <path id="Trazado_6972" data-name="Trazado 6972" class="cls-1" d="M10.81,148.162c0-2.259-.018-4.518.006-6.777a2.164,2.164,0,0,1,2.449-2.461q5.448-.034,10.9,0a2.219,2.219,0,0,1,2.509,2.434q.055,6.843,0,13.686a2.374,2.374,0,0,1-2.559,2.612q-5.38.081-10.762,0c-1.746-.028-2.526-.937-2.539-2.716-.016-2.259,0-4.518,0-6.777" transform="translate(-7.928 -101.935)"/>
    <path id="Trazado_6973" data-name="Trazado 6973" class="cls-1" d="M30.68,217.8q-13.7,0-27.391,0c-2.17,0-3.266-.75-3.289-2.232-.023-1.522,1.177-2.4,3.315-2.4q27.325,0,54.649,0c.222,0,.444,0,.665.006,1.613.08,2.687,1.023,2.692,2.361S60.278,217.8,58.6,217.8q-13.961.018-27.923.007" transform="translate(0 -156.428)"/>
  </g>
</svg>
